<svg width="454px" height="87px" viewBox="0 0 454 87" version="1.1"
    xmlns="http://www.w3.org/2000/svg" xmlns:xlink="http://www.w3.org/1999/xlink">
    <style>@media (prefers-color-scheme: dark) { polygon { fill: #FFFFFF; } text { fill: #FFFFFF; }
        }</style>
    <g id="Color" stroke="none" stroke-width="1" fill="none" fill-rule="evenodd">
        <g id="Group" transform="translate(11.4487, 14)" fill="#512BD4" fill-rule="nonzero">
            <g id="Group-2" transform="translate(361.5513, 0)">
                <polygon id="Path"
                    points="23.2 20.1 5.4 20.1 22.6 37.3 5.4 54.5 23.2 54.5 40.4 37.3"></polygon>
                <polygon id="Path"
                    points="50.1 20.1 32.3 20.1 49.5 37.3 32.3 54.5 50.1 54.5 67.3 37.3"></polygon>
            </g>
            <g id="InertiaCore" transform="translate(0, 3.3726)">
                <polygon id="Path"
                    points="0 49.6274414 8.49023438 1.31396484 18.0249023 1.31396484 9.53466797 49.6274414"></polygon>
                <path
                    d="M18.0585938,49.6274414 L24.1230469,15.1274414 L33.0175781,15.1274414 L32.34375,18.8671875 C33.6689453,17.3398438 35.2692871,16.171875 37.1447754,15.3632812 C39.0202637,14.5546875 40.9799805,14.1503906 43.0239258,14.1503906 C46.887207,14.1728516 49.8745117,15.4643555 51.9858398,18.0249023 C53.5356445,19.9116211 54.3105469,22.28125 54.3105469,25.1337891 C54.3105469,26.1669922 54.2094727,27.2675781 54.0073242,28.4355469 L50.2675781,49.6274414 L41.3730469,49.6274414 L44.8769531,29.5473633 C44.9892578,28.8735352 45.0454102,28.2558594 45.0454102,27.6943359 C45.0454102,26.234375 44.6860352,25.0776367 43.9672852,24.2241211 C42.956543,23.0112305 41.4067383,22.4160156 39.3178711,22.4384766 C37.206543,22.4384766 35.3479004,23.0561523 33.7419434,24.2915039 C32.1359863,25.5268555 31.0185547,27.3911133 30.3896484,29.8842773 L26.953125,49.6274414 L18.0585938,49.6274414 Z"
                    id="Path"></path>
                <path
                    d="M59.0947266,31.7036133 C59.8808594,26.6948242 62.2224121,22.5170898 66.1193848,19.1704102 C70.0163574,15.8237305 74.5253906,14.1503906 79.6464844,14.1503906 C82.9931641,14.1503906 85.9243164,14.9477539 88.4399414,16.5424805 C90.9780273,18.159668 92.8085938,20.3608398 93.9316406,23.1459961 C94.6503906,24.9428711 95.0097656,26.8520508 95.0097656,28.8735352 C95.0097656,29.996582 94.8974609,31.1645508 94.6728516,32.3774414 C94.5830078,33.3881836 94.2685547,34.6123047 93.7294922,36.0498047 L67.6523438,36.0498047 C67.8544922,38.2734375 68.7023926,39.9074707 70.1960449,40.9519043 C71.6896973,41.9963379 73.5932617,42.5185547 75.9067383,42.5185547 C79.3657227,42.5185547 82.1958008,41.3505859 84.3969727,39.0146484 L90.6972656,44.034668 C86.7890625,48.4145508 81.6342773,50.6044922 75.2329102,50.6044922 C71.4370117,50.6044922 68.2026367,49.7509766 65.5297852,48.0439453 C62.8569336,46.3369141 60.9702148,44.0571289 59.8696289,41.2045898 C59.1508789,39.340332 58.7915039,37.3413086 58.7915039,35.2075195 C58.7915039,34.0844727 58.8925781,32.9165039 59.0947266,31.7036133 Z M68.8652344,29.0756836 L86.418457,29.0756836 C86.3510742,26.7397461 85.6435547,25.0046387 84.2958984,23.8703613 C82.9482422,22.736084 81.21875,22.1689453 79.1074219,22.1689453 C76.8164062,22.1689453 74.7780762,22.7753906 72.9924316,23.9882812 C71.2067871,25.2011719 69.8310547,26.8969727 68.8652344,29.0756836 Z"
                    id="Shape"></path>
                <path
                    d="M97.6376953,49.6274414 L103.702148,15.1274414 L112.59668,15.1274414 L111.619629,20.652832 C112.877441,18.5415039 114.52832,16.9692383 116.572266,15.9360352 C118.526367,14.9477539 120.648926,14.4536133 122.939941,14.4536133 C123.029785,14.4536133 123.130859,14.4536133 123.243164,14.4536133 L121.491211,24.3588867 C121.041992,24.3139648 120.587158,24.2915039 120.126709,24.2915039 C119.66626,24.2915039 119.211426,24.3139648 118.762207,24.3588867 C117.818848,24.4487305 116.847412,24.6845703 115.8479,25.0664062 C114.848389,25.4482422 113.938721,25.9536133 113.118896,26.5825195 C112.299072,27.2114258 111.557861,28.0593262 110.895264,29.1262207 C110.232666,30.1931152 109.766602,31.4116211 109.49707,32.7817383 L106.532227,49.6274414 L97.6376953,49.6274414 Z"
                    id="Path"></path>
                <path
                    d="M124.894043,23.6850586 L126.410156,15.1274414 L132.339844,15.1274414 L133.586426,8.15332031 L142.952637,5.45800781 L141.234375,15.1274414 L149.118164,15.1274414 L147.534668,23.6850586 L139.785645,23.6850586 L137.225098,38.0375977 C137.157715,38.4194336 137.124023,38.7675781 137.124023,39.0820312 C137.124023,39.8007812 137.303711,40.3510742 137.663086,40.7329102 C138.179688,41.2944336 139.010742,41.5976562 140.15625,41.6425781 C140.493164,41.6650391 140.841309,41.6650391 141.200684,41.6425781 C142.121582,41.6425781 143.188477,41.6088867 144.401367,41.5415039 L143.02002,49.6274414 C141.447754,49.8071289 140.010254,49.8969727 138.70752,49.8969727 C135.11377,49.8969727 132.440918,49.2119141 130.688965,47.8417969 C128.89209,46.4492188 128.004883,44.2817383 128.027344,41.3393555 C128.027344,40.3286133 128.128418,39.2280273 128.330566,38.0375977 L130.891113,23.6850586 L124.894043,23.6850586 Z"
                    id="Path"></path>
                <path
                    d="M149.320312,49.6274414 L155.384766,15.1274414 L164.279297,15.1274414 L158.214844,49.6274414 L149.320312,49.6274414 Z M156.058594,5.52539062 C156.305664,4.02050781 157.046875,2.72338867 158.282227,1.6340332 C159.517578,0.544677734 160.898926,0 162.42627,0 C163.953613,0 165.166504,0.550292969 166.064941,1.65087891 C166.783691,2.52685547 167.143066,3.51513672 167.143066,4.61572266 C167.143066,4.90771484 167.109375,5.2109375 167.041992,5.52539062 C166.772461,7.03027344 166.02002,8.31616211 164.784668,9.38305664 C163.549316,10.4499512 162.167969,10.9833984 160.640625,10.9833984 C159.135742,10.9833984 157.934082,10.4443359 157.035645,9.36621094 C156.339355,8.51269531 155.991211,7.546875 155.991211,6.46875 C155.991211,6.15429687 156.013672,5.83984375 156.058594,5.52539062 Z"
                    id="Shape"></path>
                <path
                    d="M167.378906,36.2856445 C167.356445,35.8813477 167.345215,35.4882812 167.345215,35.1064453 C167.345215,33.9160156 167.46875,32.7255859 167.71582,31.5351562 C168.277344,28.3457031 169.428467,25.442627 171.169189,22.8259277 C172.909912,20.2092285 175.184082,18.1091309 177.991699,16.5256348 C180.799316,14.9421387 183.854004,14.1503906 187.155762,14.1503906 C189.581543,14.1503906 191.698486,14.638916 193.506592,15.6159668 C195.314697,16.5930176 196.746582,17.96875 197.802246,19.7431641 L198.61084,15.1274414 L207.505371,15.1274414 L201.440918,49.6274414 L192.546387,49.6274414 L193.085449,46.4604492 C190.120605,49.2231445 186.302246,50.6044922 181.630371,50.6044922 C179.855957,50.6044922 178.210693,50.3574219 176.69458,49.8632812 C175.178467,49.3691406 173.881348,48.6784668 172.803223,47.7912598 C171.725098,46.9040527 170.770508,45.8596191 169.939453,44.657959 C169.108398,43.4562988 168.501953,42.1535645 168.120117,40.7497559 C167.738281,39.3459473 167.491211,37.8579102 167.378906,36.2856445 Z M176.610352,32.3100586 C176.475586,33.0512695 176.408203,33.7700195 176.408203,34.4663086 C176.408203,36.3979492 176.947266,38.0375977 178.025391,39.3852539 C179.485352,41.2270508 181.60791,42.1367188 184.393066,42.1142578 C187.065918,42.1142578 189.429932,41.2663574 191.485107,39.5705566 C193.540283,37.8747559 194.882324,35.6567383 195.51123,32.9165039 L195.645996,31.8383789 C195.713379,31.2768555 195.74707,30.7490234 195.74707,30.2548828 C195.74707,28.2109375 195.140625,26.5151367 193.927734,25.1674805 C192.400391,23.5053711 190.311523,22.6630859 187.661133,22.640625 C184.943359,22.640625 182.55127,23.5053711 180.484863,25.2348633 C178.418457,26.9643555 177.126953,29.3227539 176.610352,32.3100586 Z"
                    id="Shape"></path>
                <path
                    d="M212.121094,24.796875 C212.907227,20.1474609 214.65918,15.9584961 217.376953,12.2299805 C220.094727,8.50146484 223.497559,5.59277344 227.585449,3.50390625 C231.67334,1.41503906 236.041992,0.370605469 240.691406,0.370605469 C245.318359,0.370605469 249.293945,1.38696289 252.618164,3.41967773 C255.942383,5.45239258 258.413086,8.25439453 260.030273,11.8256836 L251.337891,16.3740234 C249.204102,11.859375 245.363281,9.60205078 239.81543,9.60205078 C235.210938,9.60205078 231.218506,11.0788574 227.838135,14.0324707 C224.457764,16.986084 222.374512,20.7988281 221.588379,25.4707031 C221.36377,26.7060547 221.251465,27.8740234 221.251465,28.9746094 C221.251465,32.0742188 222.10498,34.7021484 223.812012,36.8583984 C226.125488,39.8007812 229.505859,41.2719727 233.953125,41.2719727 C239.905273,41.2719727 244.565918,38.9248047 247.935059,34.2304688 L255.751465,39.2841797 C253.123535,42.8105469 249.838623,45.5788574 245.896729,47.5891113 C241.954834,49.5993652 237.760254,50.6044922 233.312988,50.6044922 C229.674316,50.6044922 226.372559,49.9138184 223.407715,48.5324707 C220.442871,47.151123 218.045166,45.2924805 216.2146,42.956543 C214.384033,40.6206055 213.086914,37.8803711 212.323242,34.7358398 C211.896484,32.9838867 211.694336,31.1870117 211.716797,29.3452148 C211.716797,27.862793 211.851563,26.3466797 212.121094,24.796875 Z"
                    id="Path"></path>
                <path
                    d="M259.693359,37.0942383 C259.648438,36.465332 259.625977,35.8364258 259.625977,35.2075195 C259.625977,33.9272461 259.727051,32.6132812 259.929199,31.265625 C260.872559,26.3242188 263.247803,22.2363281 267.054932,19.0019531 C270.862061,15.7675781 275.427246,14.1503906 280.750488,14.1503906 C283.42334,14.1503906 285.843506,14.6894531 288.010986,15.7675781 C290.178467,16.8457031 291.913574,18.2719727 293.216309,20.0463867 C294.496582,21.8432617 295.39502,23.887207 295.911621,26.1782227 C296.181152,27.4135742 296.315918,28.6601562 296.315918,29.9179688 C296.315918,31.0185547 296.214844,32.1416016 296.012695,33.2871094 C295.181641,38.1835938 292.828857,42.2939453 288.954346,45.6181641 C285.079834,48.9423828 280.649414,50.6044922 275.663086,50.6044922 C273.37207,50.6044922 271.255127,50.2507324 269.312256,49.5432129 C267.369385,48.8356934 265.757812,47.8754883 264.477539,46.6625977 C263.197266,45.449707 262.119141,44.0178223 261.243164,42.3669434 C260.367188,40.7160645 259.850586,38.9584961 259.693359,37.0942383 Z M268.82373,32.3774414 C268.688965,33.1411133 268.621582,33.8710938 268.621582,34.5673828 C268.621582,36.4765625 269.149414,38.0600586 270.205078,39.3178711 C271.642578,41.0473633 273.664062,41.9121094 276.269531,41.9121094 C278.897461,41.9121094 281.255859,41.0361328 283.344727,39.2841797 C285.433594,37.5322266 286.713867,35.2075195 287.185547,32.3100586 C287.320312,31.5463867 287.387695,30.8276367 287.387695,30.1538086 C287.387695,28.2895508 286.848633,26.7172852 285.770508,25.4370117 C284.288086,23.7075195 282.244141,22.8427734 279.638672,22.8427734 C277.033203,22.8427734 274.714111,23.7075195 272.681396,25.4370117 C270.648682,27.1665039 269.362793,29.4799805 268.82373,32.3774414 Z"
                    id="Shape"></path>
                <path
                    d="M299.449219,49.6274414 L305.513672,15.1274414 L314.408203,15.1274414 L313.431152,20.652832 C314.688965,18.5415039 316.339844,16.9692383 318.383789,15.9360352 C320.337891,14.9477539 322.460449,14.4536133 324.751465,14.4536133 C324.841309,14.4536133 324.942383,14.4536133 325.054688,14.4536133 L323.302734,24.3588867 C322.853516,24.3139648 322.398682,24.2915039 321.938232,24.2915039 C321.477783,24.2915039 321.022949,24.3139648 320.57373,24.3588867 C319.630371,24.4487305 318.658936,24.6845703 317.659424,25.0664062 C316.659912,25.4482422 315.750244,25.9536133 314.93042,26.5825195 C314.110596,27.2114258 313.369385,28.0593262 312.706787,29.1262207 C312.044189,30.1931152 311.578125,31.4116211 311.308594,32.7817383 L308.34375,49.6274414 L299.449219,49.6274414 Z"
                    id="Path"></path>
                <path
                    d="M324.347168,31.7036133 C325.133301,26.6948242 327.474854,22.5170898 331.371826,19.1704102 C335.268799,15.8237305 339.777832,14.1503906 344.898926,14.1503906 C348.245605,14.1503906 351.176758,14.9477539 353.692383,16.5424805 C356.230469,18.159668 358.061035,20.3608398 359.184082,23.1459961 C359.902832,24.9428711 360.262207,26.8520508 360.262207,28.8735352 C360.262207,29.996582 360.149902,31.1645508 359.925293,32.3774414 C359.835449,33.3881836 359.520996,34.6123047 358.981934,36.0498047 L332.904785,36.0498047 C333.106934,38.2734375 333.954834,39.9074707 335.448486,40.9519043 C336.942139,41.9963379 338.845703,42.5185547 341.15918,42.5185547 C344.618164,42.5185547 347.448242,41.3505859 349.649414,39.0146484 L355.949707,44.034668 C352.041504,48.4145508 346.886719,50.6044922 340.485352,50.6044922 C336.689453,50.6044922 333.455078,49.7509766 330.782227,48.0439453 C328.109375,46.3369141 326.222656,44.0571289 325.12207,41.2045898 C324.40332,39.340332 324.043945,37.3413086 324.043945,35.2075195 C324.043945,34.0844727 324.14502,32.9165039 324.347168,31.7036133 Z M334.117676,29.0756836 L351.670898,29.0756836 C351.603516,26.7397461 350.895996,25.0046387 349.54834,23.8703613 C348.200684,22.736084 346.471191,22.1689453 344.359863,22.1689453 C342.068848,22.1689453 340.030518,22.7753906 338.244873,23.9882812 C336.459229,25.2011719 335.083496,26.8969727 334.117676,29.0756836 Z"
                    id="Shape"></path>
            </g>
        </g>
    </g>
</svg>
